<?xml version="1.0" standalone="no"?>
<!DOCTYPE svg PUBLIC "-//W3C//DTD SVG 20010904//EN"
 "http://www.w3.org/TR/2001/REC-SVG-20010904/DTD/svg10.dtd">
<svg version="1.0" xmlns="http://www.w3.org/2000/svg"
 width="200" height="100" viewBox="0 0 200.000000 200.000000"
 preserveAspectRatio="xMidYMid meet">
<metadata>
Created by potrace 1.16, written by Peter Selinger 2001-2019
</metadata>
<g transform="translate(0.000000,200.000000) scale(0.100000,-0.100000)"
fill="#000000" stroke="none">
<path d="M651 1396 c-56 -19 -96 -58 -118 -115 -16 -40 -18 -80 -18 -291 1
-267 3 -278 63 -343 52 -55 186 -71 261 -32 36 18 77 64 92 100 16 41 24 399
11 499 -12 89 -42 138 -105 169 -49 25 -132 30 -186 13z m103 -142 c9 -24 7
-497 -3 -512 -5 -8 -17 -12 -27 -10 -18 3 -19 18 -22 248 -1 135 0 255 3 268
6 26 40 30 49 6z"/>
<path d="M1116 1399 c-55 -13 -102 -52 -117 -96 -7 -21 -13 -73 -12 -115 1
-113 22 -149 133 -232 49 -37 94 -75 100 -86 5 -10 10 -44 10 -74 0 -43 -4
-57 -18 -65 -34 -18 -46 3 -50 83 l-4 76 -85 0 -86 0 5 -82 c3 -49 11 -98 21
-118 64 -133 327 -128 383 7 17 39 18 172 3 226 -13 48 -63 104 -145 162 -76
55 -94 78 -94 125 0 44 12 63 36 58 15 -2 20 -15 24 -58 l5 -55 83 -3 c64 -2
84 0 88 12 10 26 -14 157 -33 178 -46 52 -163 78 -247 57z"/>
<path d="M190 1000 l0 -390 150 0 150 0 0 74 0 75 -52 3 -53 3 -3 313 -2 312
-95 0 -95 0 0 -390z"/>
<path d="M1420 1316 c0 -82 3 -86 71 -86 l39 0 0 -310 0 -310 95 0 95 0 0 310
0 310 28 1 c15 1 31 1 36 0 4 -1 17 1 27 4 16 6 19 16 19 81 l0 74 -205 0
-205 0 0 -74z"/>
</g>
</svg>
